<?xml version="1.0" encoding="UTF-8"?>
<svg xmlns="http://www.w3.org/2000/svg" xmlns:xlink="http://www.w3.org/1999/xlink" viewBox="0 0 650 557">
  <defs>
    <style>
      .cls-1 {
        fill: none;
      }

      .cls-2 {
        fill: #827ded;
      }

      .cls-3 {
        fill: url(#_ÂÁ_Ï_ÌÌ_È_ËÂÌÚ_167);
      }

      .cls-4 {
        fill: #6666c4;
      }

      .cls-4, .cls-5 {
        opacity: .9;
      }

      .cls-6, .cls-7, .cls-8 {
        mix-blend-mode: multiply;
      }

      .cls-6, .cls-8 {
        fill: #9e9ecc;
      }

      .cls-9 {
        fill: #c3beb1;
      }

      .cls-10 {
        fill: #f3f1f1;
      }

      .cls-11 {
        isolation: isolate;
      }

      .cls-7 {
        fill: #7f647e;
      }

      .cls-7, .cls-8, .cls-12 {
        opacity: .5;
      }

      .cls-13 {
        fill: #6a6acc;
      }

      .cls-5, .cls-14 {
        fill: #fff9ed;
      }

      .cls-15 {
        fill: #b271af;
      }

      .cls-16 {
        fill: #da9ed6;
      }

      .cls-17, .cls-12 {
        fill: #f3ecdf;
      }

      .cls-18 {
        fill: #171737;
      }

      .cls-19 {
        fill: #ece5d9;
      }

      .cls-20 {
        fill: #9b978e;
      }
    </style>
    <clipPath id="clippath">
      <path class="cls-1" d="M436.36,80.36c0,11.2-9.08,25.53-20.28,32-11.2,6.47-20.29,2.63-20.29-8.57s9.08-25.53,20.29-32c11.2-6.47,20.28-2.63,20.28,8.57Z"/>
    </clipPath>
    <linearGradient id="_ÂÁ_Ï_ÌÌ_È_ËÂÌÚ_167" data-name="¡ÂÁ˚ÏˇÌÌ˚È „‡‰ËÂÌÚ 167" x1="372.09" y1="465.7" x2="353.29" y2="465.7" gradientUnits="userSpaceOnUse">
      <stop offset="0" stop-color="#ece5d9"/>
      <stop offset="1" stop-color="#c3beb1"/>
    </linearGradient>
    <clipPath id="clippath-2">
      <path class="cls-1" d="M436.36,80.36c0,11.2-9.08,25.53-20.28,32-11.2,6.47-20.29,2.63-20.29-8.57s9.08-25.53,20.29-32c11.2-6.47,20.28-2.63,20.28,8.57Z"/>
    </clipPath>
  </defs>
  <g class="cls-11">
    <g id="Layer_1" data-name="Layer 1">
      <g id="_16" data-name="16">
        <path class="cls-7" d="M312.55,252.24L5.53,429.5c-2.7,1.56-1.6,5.69,1.53,5.69h140.56l198.48,114.59h16.14l-49.68-297.54Z"/>
        <g>
          <g>
            <g>
              <g>
                <g>
                  <path class="cls-19" d="M381.35,34.31c-1.49-.19-3.07.12-4.59,1L104.98,193.13c-4.58,2.65-6.89,9.47-5.15,15.29l66.13,221.18c1.16,3.88,3.83,6.3,6.85,6.68l1.24.16L382.59,34.46l-1.24-.16Z"/>
                  <path class="cls-18" d="M455.59,262.34l-66.13-221.18c-1.74-5.82-6.88-8.35-11.46-5.7L106.22,193.29c-4.58,2.65-6.89,9.47-5.15,15.29l66.13,221.18c1.73,5.79,6.84,8.33,11.43,5.68l271.78-157.83c4.58-2.65,6.92-9.49,5.19-15.28Z"/>
                </g>
                <g>
                  <path class="cls-3" d="M178.07,436.86l-.02,6.28c0,1.72,1.13,3.45,3.4,4.76l173.13,99.96c4.53,2.62,11.86,2.6,16.36-.01l267.17-155.26c2.24-1.3,3.35-3,3.36-4.7l.02-6.28-463.43,55.26Z"/>
                  <path class="cls-14" d="M638.08,376.83l-173.13-99.96c-4.53-2.61-11.84-2.61-16.34,0l-267.17,155.26c-4.5,2.61-4.5,6.86.03,9.48l173.13,99.96c4.53,2.61,11.86,2.6,16.36-.01l267.17-155.26c4.5-2.61,4.48-6.85-.05-9.46Z"/>
                </g>
                <polygon class="cls-17" points="539.69 440.38 470.5 480.33 468.54 484.82 473.41 485.1 542.38 445.28 545.77 439.98 539.69 440.38"/>
              </g>
              <path class="cls-19" d="M442.6,296.07l-3.14-1.82c-1.16-.67-2.92-.7-3.98-.09l-225.81,131.03c-1.05.61-1,1.63.16,2.3l3.14,1.81c1.13.65,2.92.7,3.98.09l225.81-131.03c1.05-.61.97-1.65-.16-2.3Z"/>
              <g>
                <g>
                  <path class="cls-19" d="M439.41,310.45l9.82,5.67c1.13.65,2.92.7,3.98.09l10.83-6.3c.5-.29.74-.67.74-1.06v-2.17c0,.39-.24.78-.74,1.06l-10.83,6.3c-1.05.61-2.84.57-3.98-.09l-9.82-5.67c-.61-.35-.91-.8-.91-1.24v2.17c0,.44.3.88.9,1.24Z"/>
                  <path class="cls-19" d="M421.9,320.62l9.82,5.67c1.13.65,2.92.7,3.98.09l10.83-6.29c.5-.29.75-.67.75-1.06v-2.17c0,.39-.24.77-.74,1.06l-10.83,6.3c-1.05.61-2.84.57-3.98-.09l-9.82-5.67c-.61-.35-.91-.8-.91-1.24v2.17c0,.44.3.89.9,1.24Z"/>
                  <path class="cls-19" d="M455.73,316.99v2.17c0,.43.29.87.88,1.22l9.85,5.68c1.13.65,2.9.68,3.95.07l10.83-6.3c.5-.29.75-.68.75-1.07v-2.17c0,.39-.24.78-.75,1.07l-10.83,6.29c-1.05.61-2.82.58-3.95-.07l-9.85-5.68c-.59-.34-.89-.78-.89-1.22Z"/>
                  <path class="cls-19" d="M464.5,328.94v-2.17c0,.39-.25.77-.76,1.07l-10.83,6.3c-1.05.61-2.82.58-3.95-.07l-9.85-5.68c-.59-.34-.89-.78-.89-1.22v2.17c0,.43.29.87.88,1.22l9.85,5.68c1.13.65,2.9.68,3.95.07l10.83-6.3c.51-.3.76-.68.76-1.07Z"/>
                  <path class="cls-19" d="M469.88,341.59l-9.85-5.68c-.59-.34-.89-.78-.89-1.22v2.17c0,.43.29.87.88,1.22l9.85,5.68c1.13.65,2.92.7,3.97.09l24.4-14.18c.5-.29.74-.67.74-1.06v-2.17c0,.39-.24.78-.74,1.06l-24.4,14.18c-1.05.61-2.84.57-3.98-.08Z"/>
                  <path class="cls-19" d="M404.42,330.78l9.82,5.67c1.13.65,2.92.7,3.98.09l10.83-6.3c.5-.29.74-.67.74-1.06v-2.17c0,.39-.24.78-.74,1.06l-10.83,6.29c-1.05.61-2.84.57-3.97-.09l-9.82-5.67c-.61-.35-.91-.8-.91-1.24v2.17c0,.44.3.89.9,1.24Z"/>
                  <path class="cls-19" d="M431.47,344.23l-9.85-5.68c-.59-.34-.89-.78-.89-1.22v2.17c0,.43.29.87.88,1.22l9.85,5.68c1.13.65,2.9.68,3.95.07l10.83-6.3c.5-.29.75-.68.75-1.07v-2.17c0,.39-.24.78-.75,1.07l-10.83,6.3c-1.05.61-2.82.58-3.95-.07Z"/>
                  <path class="cls-19" d="M452.42,356.29l14.75-8.57c.5-.29.74-.67.74-1.06v-2.17c0,.39-.24.78-.74,1.06l-14.74,8.57c-1.05.61-2.84.57-3.98-.09l-9.85-5.68c-.59-.34-.89-.78-.89-1.22v2.17c0,.43.29.87.88,1.22l9.85,5.68c1.13.65,2.92.7,3.97.09Z"/>
                  <path class="cls-19" d="M470.23,360.86l-8.79-5.07c-.75-.44-1.13-.99-1.13-1.53v2.17c0,.54.37,1.1,1.12,1.53l8.79,5.07c1.43.82,3.61.87,4.91.11l40.35-23.45c.62-.36.93-.84.93-1.33v-2.17c0,.49-.31.97-.92,1.33l-40.35,23.45c-1.3.75-3.48.71-4.91-.11Z"/>
                  <path class="cls-19" d="M532.98,347.54l-10.83,6.29c-1.05.61-2.84.57-3.97-.09l-9.85-5.68c-.59-.34-.89-.78-.89-1.22v2.17c0,.43.29.87.88,1.22l9.85,5.68c1.13.65,2.92.7,3.98.09l10.83-6.3c.5-.29.74-.67.74-1.06v-2.17c0,.39-.24.78-.74,1.06Z"/>
                  <path class="cls-19" d="M492.5,359.21l-1.65-.95c-.61-.35-.91-.8-.91-1.24v2.17c0,.44.3.88.9,1.24l1.65.95c1.13.65,2.92.7,3.97.09l10.83-6.3c.5-.29.75-.67.75-1.06v-2.17c0,.39-.24.77-.74,1.06l-10.83,6.3c-1.05.61-2.84.57-3.98-.09Z"/>
                  <path class="cls-19" d="M515.48,357.72l-10.83,6.3c-1.05.61-2.84.57-3.98-.09l-1.67-.97c-.59-.34-.89-.78-.89-1.22v2.17c0,.43.29.87.88,1.22l1.67.97c1.13.65,2.92.7,3.98.09l10.83-6.29c.5-.29.75-.67.75-1.06v-2.17c0,.39-.24.77-.74,1.06Z"/>
                  <path class="cls-19" d="M497.99,367.88l-10.83,6.3c-1.05.61-2.84.57-3.98-.09l-9.82-5.67c-.61-.35-.91-.8-.91-1.24v2.17c0,.44.3.88.9,1.24l9.82,5.67c1.13.65,2.92.7,3.98.09l10.83-6.3c.5-.29.74-.67.74-1.06v-2.17c0,.39-.24.78-.74,1.06Z"/>
                  <path class="cls-19" d="M381.31,344.1l9.82,5.67c1.13.65,2.92.7,3.98.09l16.48-9.58c.5-.29.74-.67.74-1.06v-2.17c0,.39-.24.78-.74,1.06l-16.48,9.58c-1.05.61-2.84.57-3.98-.09l-9.82-5.67c-.61-.35-.91-.8-.91-1.24v2.17c0,.44.3.88.9,1.24Z"/>
                  <path class="cls-19" d="M414.36,354.18l-9.82-5.67c-.6-.35-.9-.8-.9-1.24v2.17c0,.44.3.89.9,1.24l9.82,5.67c1.13.65,2.92.7,3.97.09l10.83-6.3c.5-.29.74-.67.74-1.06v-2.17c0,.39-.24.78-.74,1.06l-10.83,6.3c-1.05.61-2.84.57-3.97-.09Z"/>
                  <path class="cls-19" d="M363.82,354.26l9.82,5.67c1.13.65,2.92.7,3.97.09l10.83-6.3c.5-.29.74-.67.74-1.06v-2.17c0,.39-.24.78-.74,1.06l-10.83,6.29c-1.05.61-2.84.57-3.97-.09l-9.82-5.67c-.61-.35-.91-.8-.91-1.24v2.17c0,.44.3.89.9,1.24Z"/>
                  <path class="cls-19" d="M396.85,364.35l-9.82-5.67c-.6-.35-.9-.8-.9-1.24v2.17c0,.44.3.89.9,1.24l9.82,5.67c1.13.65,2.92.7,3.97.09l10.83-6.3c.5-.29.74-.67.74-1.06v-2.17c0,.39-.24.78-.74,1.06l-10.83,6.3c-1.05.61-2.84.57-3.98-.09Z"/>
                  <path class="cls-19" d="M429.41,369.66l16.48-9.58c.5-.29.74-.67.74-1.06v-2.17c0,.39-.24.78-.74,1.06l-16.48,9.58c-1.05.61-2.84.57-3.97-.09l-9.85-5.68c-.59-.34-.89-.78-.89-1.22v2.17c0,.43.29.87.88,1.22l9.85,5.68c1.13.65,2.92.7,3.97.09Z"/>
                  <path class="cls-19" d="M452.63,376.24l16.04-9.32c.5-.29.74-.67.74-1.06v-2.17c0,.39-.24.78-.74,1.06l-16.04,9.32c-1.05.61-2.84.57-3.97-.09l-9.82-5.67c-.61-.35-.91-.8-.91-1.24v2.17c0,.44.3.88.9,1.24l9.82,5.67c1.13.65,2.92.7,3.98.08Z"/>
                  <path class="cls-19" d="M346.32,364.43l9.82,5.67c1.13.65,2.92.7,3.97.09l10.86-6.31c.49-.29.73-.66.73-1.04v-2.17c0,.38-.23.76-.72,1.04l-10.86,6.31c-1.05.61-2.84.57-3.98-.09l-9.82-5.67c-.61-.35-.91-.8-.91-1.24v2.17c0,.44.3.88.9,1.24Z"/>
                  <path class="cls-19" d="M379.36,374.51l-9.82-5.67c-.6-.35-.9-.8-.9-1.24v2.17c0,.44.3.89.9,1.24l9.82,5.67c1.13.65,2.92.7,3.97.09l10.83-6.29c.5-.29.74-.67.74-1.06v-2.17c0,.39-.24.78-.74,1.06l-10.83,6.29c-1.05.61-2.84.57-3.98-.09Z"/>
                  <path class="cls-19" d="M411.93,379.82l10.83-6.3c.5-.29.74-.67.74-1.06v-2.17c0,.39-.24.78-.74,1.06l-10.83,6.3c-1.05.61-2.84.57-3.98-.09l-9.85-5.68c-.59-.34-.89-.78-.89-1.22v2.17c0,.43.29.87.88,1.22l9.85,5.68c1.13.65,2.92.7,3.98.09Z"/>
                  <path class="cls-19" d="M435.13,386.42l10.83-6.3c.5-.29.74-.67.74-1.06v-2.17c0,.39-.24.78-.74,1.06l-10.83,6.3c-1.05.61-2.84.57-3.97-.09l-9.82-5.67c-.61-.35-.91-.8-.91-1.24v2.17c0,.44.3.88.9,1.24l9.82,5.67c1.13.65,2.92.7,3.97.09Z"/>
                  <path class="cls-19" d="M328.83,374.59l9.82,5.67c1.13.65,2.92.7,3.98.09l10.83-6.29c.5-.29.74-.67.74-1.06v-2.17c0,.39-.24.78-.74,1.06l-10.83,6.29c-1.05.61-2.84.57-3.97-.09l-9.82-5.67c-.61-.35-.91-.8-.91-1.24v2.17c0,.44.3.88.9,1.24Z"/>
                  <path class="cls-19" d="M361.85,384.69l-9.82-5.67c-.6-.35-.9-.8-.9-1.24v2.17c0,.44.3.89.9,1.24l9.82,5.67c1.13.65,2.92.7,3.98.09l10.83-6.3c.5-.29.74-.67.74-1.06v-2.17c0,.39-.24.78-.74,1.06l-10.83,6.29c-1.05.61-2.84.57-3.97-.08Z"/>
                  <path class="cls-19" d="M394.42,390l10.86-6.31c.49-.29.73-.66.73-1.04v-2.17c0,.38-.23.76-.72,1.04l-10.86,6.31c-1.05.61-2.84.57-3.97-.09l-9.85-5.68c-.59-.34-.89-.78-.89-1.22v2.17c0,.43.29.87.88,1.22l9.85,5.68c1.13.65,2.92.7,3.98.09Z"/>
                  <path class="cls-19" d="M417.64,396.58l10.83-6.3c.5-.29.74-.67.74-1.06v-2.17c0,.39-.24.78-.74,1.06l-10.83,6.29c-1.05.61-2.84.57-3.98-.09l-9.82-5.67c-.61-.35-.91-.8-.91-1.24v2.17c0,.44.3.88.9,1.24l9.82,5.67c1.13.65,2.92.7,3.98.09Z"/>
                  <path class="cls-19" d="M311.32,384.77l9.82,5.67c1.13.65,2.92.7,3.97.09l10.86-6.31c.5-.29.74-.67.74-1.06v-2.17c0,.39-.24.78-.73,1.06l-10.86,6.31c-1.05.61-2.84.57-3.98-.09l-9.82-5.67c-.61-.35-.91-.8-.91-1.24v2.17c0,.44.3.89.9,1.24Z"/>
                  <path class="cls-19" d="M344.37,394.85l-9.82-5.67c-.6-.35-.9-.8-.9-1.24v2.17c0,.44.3.89.9,1.24l9.82,5.67c1.13.65,2.92.7,3.97.09l10.83-6.3c.5-.29.74-.67.74-1.06v-2.17c0,.39-.24.78-.74,1.06l-10.83,6.29c-1.05.61-2.84.57-3.97-.09Z"/>
                  <path class="cls-19" d="M376.94,400.16l10.83-6.3c.5-.29.74-.67.74-1.06v-2.17c0,.39-.24.78-.74,1.06l-10.83,6.29c-1.05.61-2.84.57-3.97-.09l-9.85-5.68c-.59-.34-.89-.78-.89-1.22v2.17c0,.43.29.87.88,1.22l9.85,5.68c1.13.65,2.92.7,3.98.09Z"/>
                  <path class="cls-19" d="M400.13,406.75l10.83-6.3c.5-.29.74-.67.74-1.06v-2.17c0,.39-.24.78-.74,1.06l-10.83,6.3c-1.05.61-2.84.57-3.98-.09l-9.82-5.67c-.61-.35-.91-.8-.91-1.24v2.17c0,.44.3.89.9,1.24l9.82,5.67c1.13.65,2.92.7,3.97.09Z"/>
                  <path class="cls-19" d="M293.84,394.93l9.82,5.67c1.13.65,2.92.7,3.98.09l10.83-6.3c.5-.29.74-.67.74-1.06v-2.17c0,.39-.24.78-.74,1.06l-10.83,6.29c-1.05.61-2.84.57-3.97-.09l-9.82-5.67c-.61-.35-.91-.8-.91-1.24v2.17c0,.44.3.88.9,1.24Z"/>
                  <path class="cls-19" d="M326.86,405.02l-9.82-5.67c-.6-.35-.9-.8-.9-1.24v2.17c0,.44.3.89.9,1.24l9.82,5.67c1.13.65,2.92.7,3.98.09l10.83-6.3c.5-.29.74-.67.74-1.06v-2.17c0,.39-.24.78-.74,1.06l-10.83,6.3c-1.05.61-2.84.57-3.98-.09Z"/>
                  <path class="cls-19" d="M359.43,410.33l10.86-6.31c.5-.29.74-.67.74-1.06v-2.17c0,.39-.24.78-.74,1.06l-10.86,6.31c-1.05.61-2.84.57-3.97-.09l-9.85-5.68c-.59-.34-.89-.78-.89-1.22v2.17c0,.43.29.87.88,1.22l9.85,5.68c1.13.65,2.92.7,3.98.09Z"/>
                  <path class="cls-19" d="M382.65,416.91l10.83-6.3c.5-.29.74-.67.74-1.06v-2.17c0,.39-.24.78-.73,1.06l-10.83,6.3c-1.05.61-2.84.57-3.98-.09l-9.82-5.67c-.61-.35-.91-.8-.91-1.24v2.17c0,.44.3.88.9,1.24l9.82,5.67c1.13.65,2.92.7,3.98.09Z"/>
                  <path class="cls-19" d="M276.33,405.1l9.82,5.67c1.13.65,2.92.7,3.97.09l10.86-6.31c.5-.29.74-.67.74-1.06v-2.17c0,.39-.24.78-.74,1.06l-10.86,6.31c-1.05.61-2.84.57-3.97-.09l-9.82-5.67c-.61-.35-.91-.8-.91-1.24v2.17c0,.44.3.88.9,1.24Z"/>
                  <path class="cls-19" d="M309.38,415.18l-9.82-5.67c-.6-.35-.9-.8-.9-1.24v2.17c0,.44.3.89.9,1.24l9.82,5.67c1.13.65,2.92.7,3.97.09l10.83-6.3c.5-.29.74-.67.74-1.06v-2.17c0,.39-.24.78-.74,1.06l-10.83,6.3c-1.05.61-2.84.57-3.98-.09Z"/>
                  <path class="cls-19" d="M341.95,420.49l10.83-6.3c.5-.29.74-.67.74-1.06v-2.17c0,.39-.24.78-.74,1.06l-10.83,6.3c-1.05.61-2.84.57-3.98-.09l-9.85-5.68c-.59-.34-.89-.78-.89-1.22v2.17c0,.43.29.87.88,1.22l9.85,5.68c1.13.65,2.92.7,3.98.09Z"/>
                  <path class="cls-19" d="M365.14,427.09l10.83-6.29c.5-.29.74-.67.74-1.06v-2.17c0,.39-.24.78-.74,1.06l-10.83,6.3c-1.05.61-2.84.57-3.98-.09l-9.82-5.67c-.61-.35-.91-.8-.91-1.24v2.17c0,.44.3.88.9,1.24l9.82,5.67c1.13.65,2.92.7,3.97.09Z"/>
                  <path class="cls-19" d="M480.04,377.74l-16.48,9.58c-1.05.61-2.84.57-3.97-.09l-9.85-5.68c-.59-.34-.89-.78-.89-1.22v2.17c0,.43.29.87.88,1.22l9.85,5.68c1.13.65,2.92.7,3.98.09l16.48-9.58c.5-.29.74-.67.74-1.06v-2.17c0,.39-.24.78-.74,1.06Z"/>
                  <path class="cls-19" d="M457.28,391.14l-80.99,47.09c-1.05.61-2.84.57-3.98-.09l-9.85-5.68c-.59-.34-.89-.78-.89-1.22v2.17c0,.43.29.87.88,1.22l9.85,5.68c1.13.65,2.92.7,3.97.09l80.99-47.09c.5-.29.75-.68.75-1.07v-2.17c0,.39-.24.78-.75,1.07Z"/>
                  <path class="cls-19" d="M258.85,415.26l9.82,5.67c1.13.65,2.92.7,3.98.09l10.83-6.3c.5-.29.74-.67.74-1.06v-2.17c0,.39-.24.78-.74,1.06l-10.83,6.3c-1.05.61-2.84.57-3.97-.09l-9.82-5.67c-.61-.35-.91-.8-.91-1.24v2.17c0,.44.3.88.9,1.24Z"/>
                  <path class="cls-19" d="M291.87,425.36l-9.82-5.67c-.6-.35-.9-.8-.9-1.24v2.17c0,.44.3.89.9,1.24l9.82,5.67c1.13.65,2.92.7,3.98.09l10.83-6.29c.5-.29.74-.67.74-1.06v-2.17c0,.39-.24.78-.74,1.06l-10.83,6.3c-1.05.61-2.84.57-3.98-.09Z"/>
                  <path class="cls-19" d="M324.44,430.67l10.86-6.31c.5-.29.74-.67.74-1.06v-2.17c0,.39-.24.78-.74,1.06l-10.86,6.31c-1.05.61-2.84.57-3.98-.09l-9.85-5.68c-.59-.34-.89-.78-.89-1.22v2.17c0,.43.29.87.88,1.22l9.85,5.68c1.13.65,2.92.7,3.98.09Z"/>
                  <path class="cls-19" d="M347.66,437.25l10.83-6.29c.5-.29.74-.67.74-1.06v-2.17c0,.39-.24.78-.74,1.06l-10.83,6.3c-1.05.61-2.84.57-3.98-.09l-9.82-5.67c-.61-.35-.91-.8-.91-1.24v2.17c0,.44.3.89.9,1.24l9.82,5.67c1.13.65,2.92.7,3.98.09Z"/>
                  <path class="cls-19" d="M241.36,425.42l9.82,5.67c1.13.65,2.9.71,3.95.1l10.86-6.31c.5-.29.74-.67.74-1.06v-2.17c0,.39-.24.78-.74,1.06l-10.86,6.31c-1.05.61-2.82.55-3.95-.1l-9.82-5.67c-.61-.35-.92-.81-.92-1.24v2.17c0,.44.3.89.92,1.24Z"/>
                  <path class="cls-19" d="M274.39,435.52l-9.82-5.67c-.6-.35-.9-.8-.9-1.24v2.17c0,.44.3.89.9,1.24l9.82,5.67c1.13.65,2.92.7,3.97.09l10.83-6.29c.5-.29.74-.67.74-1.06v-2.17c0,.39-.24.78-.74,1.06l-10.83,6.3c-1.05.61-2.84.57-3.98-.09Z"/>
                  <path class="cls-19" d="M306.96,438.66c-1.05.61-2.84.57-3.98-.09l-9.85-5.68c-.59-.34-.89-.78-.89-1.22v2.17c0,.43.29.87.88,1.22l9.85,5.68c1.13.65,2.92.7,3.97.09l10.83-6.3c.5-.29.74-.67.74-1.06v-2.17c0,.39-.24.78-.73,1.06l-10.83,6.3Z"/>
                  <path class="cls-19" d="M330.15,447.42l10.83-6.29c.5-.29.74-.67.74-1.06v-2.17c0,.39-.24.78-.74,1.06l-10.83,6.29c-1.05.61-2.84.57-3.98-.09l-9.82-5.67c-.61-.35-.91-.8-.91-1.24v2.17c0,.44.3.89.9,1.24l9.82,5.67c1.13.65,2.92.7,3.97.09Z"/>
                  <path class="cls-19" d="M369.54,441.96l-10.86,6.31c-1.05.61-2.84.57-3.97-.09l-9.82-5.67c-.61-.35-.91-.8-.91-1.24v2.17c0,.44.3.88.9,1.24l9.82,5.67c1.13.65,2.92.7,3.98.09l10.86-6.31c.5-.29.74-.67.74-1.06v-2.17c0,.39-.24.78-.74,1.06Z"/>
                  <path class="cls-19" d="M249.22,434v-2.17c0,.39-.24.78-.74,1.06l-10.83,6.3c-1.05.61-2.84.57-3.98-.09l-9.82-5.67c-.61-.35-.91-.8-.91-1.24v2.17c0,.44.3.89.9,1.24l9.82,5.67c1.13.65,2.92.7,3.97.09l10.83-6.3c.5-.29.74-.67.74-1.06Z"/>
                  <path class="cls-19" d="M272.42,440.59v-2.17c0,.39-.24.78-.74,1.06l-16.46,9.56c-1.05.61-2.84.57-3.98-.09l-9.82-5.67c-.6-.35-.9-.8-.9-1.24v2.17c0,.44.3.89.9,1.24l9.82,5.67c1.13.65,2.92.7,3.98.09l16.46-9.56c.5-.29.74-.67.74-1.06Z"/>
                  <path class="cls-19" d="M275.67,445.23l9.8,5.68c1.13.65,2.92.7,3.98.09l10.86-6.31c.5-.29.74-.67.74-1.06v-2.17c0,.39-.24.78-.74,1.06l-10.86,6.31c-1.05.61-2.84.57-3.97-.09l-9.8-5.68c-.61-.35-.92-.81-.92-1.24v2.17c0,.44.3.89.92,1.24Z"/>
                  <path class="cls-19" d="M298.87,451.83l9.82,5.67c1.13.65,2.92.7,3.97.09l10.83-6.3c.5-.29.74-.67.74-1.06v-2.17c0,.39-.24.78-.74,1.06l-10.83,6.3c-1.05.61-2.84.57-3.98-.09l-9.82-5.67c-.61-.35-.91-.8-.91-1.24v2.17c0,.44.3.88.9,1.24Z"/>
                  <path class="cls-19" d="M352.03,452.13l-10.83,6.3c-1.05.61-2.84.57-3.98-.09l-9.82-5.67c-.61-.35-.91-.8-.91-1.24v2.17c0,.44.3.88.9,1.24l9.82,5.67c1.13.65,2.92.7,3.97.09l10.83-6.3c.5-.29.74-.67.74-1.06v-2.17c0,.39-.24.78-.74,1.06Z"/>
                  <path class="cls-19" d="M283.53,453.8v-2.17c0,.39-.24.78-.74,1.06l-10.83,6.3c-1.05.61-2.84.57-3.98-.09l-9.82-5.67c-.61-.35-.91-.8-.91-1.24v2.17c0,.44.3.88.9,1.24l9.82,5.67c1.13.65,2.92.7,3.97.09l10.83-6.29c.5-.29.74-.67.74-1.06Z"/>
                  <path class="cls-19" d="M306.73,460.4v-2.17c0,.39-.24.78-.74,1.06l-16.46,9.56c-1.05.61-2.84.57-3.98-.09l-9.82-5.67c-.61-.35-.91-.8-.91-1.24v2.17c0,.44.3.88.9,1.24l9.82,5.67c1.13.65,2.92.7,3.98.09l16.46-9.56c.5-.29.74-.67.74-1.06Z"/>
                  <path class="cls-19" d="M334.54,462.29l-10.86,6.31c-1.05.61-2.84.57-3.98-.09l-9.82-5.67c-.61-.35-.91-.8-.91-1.24v2.17c0,.44.3.89.9,1.24l9.82,5.67c1.13.65,2.92.7,3.97.09l10.86-6.31c.5-.29.74-.67.74-1.06v-2.17c0,.39-.24.78-.74,1.06Z"/>
                  <path class="cls-19" d="M317.04,472.47l-10.83,6.29c-1.05.61-2.84.57-3.98-.09l-9.82-5.67c-.61-.35-.91-.8-.91-1.24v2.17c0,.44.3.89.9,1.24l9.82,5.67c1.13.65,2.92.7,3.98.09l10.83-6.3c.5-.29.74-.67.74-1.06v-2.17c0,.39-.24.78-.74,1.06Z"/>
                </g>
                <g>
                  <path class="cls-14" d="M439.42,308.28l9.82,5.67c1.13.65,2.92.7,3.98.09l10.83-6.3c1.05-.61.97-1.65-.16-2.3l-9.82-5.67c-1.16-.67-2.92-.7-3.98-.09l-10.83,6.29c-1.05.61-1,1.63.16,2.3Z"/>
                  <path class="cls-14" d="M421.91,318.45l9.82,5.67c1.13.65,2.92.7,3.98.09l10.83-6.3c1.08-.63.97-1.65-.16-2.3l-9.82-5.67c-1.16-.67-2.9-.71-3.98-.09l-10.83,6.29c-1.05.61-1,1.63.16,2.3Z"/>
                  <path class="cls-14" d="M456.62,318.21l9.85,5.68c1.13.65,2.9.68,3.95.07l10.83-6.29c1.05-.61,1-1.63-.14-2.29l-9.85-5.68c-1.13-.65-2.92-.7-3.97-.09l-10.81,6.31c-1.05.61-1,1.63.14,2.29Z"/>
                  <path class="cls-14" d="M463.6,325.56l-9.85-5.68c-1.13-.65-2.9-.71-3.98-.09l-10.81,6.31c-1.05.61-1,1.63.14,2.29l9.85,5.68c1.13.65,2.9.68,3.95.07l10.83-6.3c1.08-.63,1-1.63-.14-2.29Z"/>
                  <path class="cls-14" d="M460.03,335.9l9.85,5.68c1.13.65,2.92.7,3.98.08l24.4-14.18c1.05-.61.97-1.65-.16-2.3l-9.85-5.68c-1.13-.65-2.9-.68-3.95-.07l-24.4,14.18c-1.05.61-1,1.63.14,2.29Z"/>
                  <path class="cls-14" d="M404.42,328.61l9.82,5.67c1.13.65,2.92.7,3.97.09l10.83-6.29c1.05-.61.97-1.65-.16-2.3l-9.82-5.67c-1.16-.67-2.92-.7-3.98-.09l-10.83,6.29c-1.05.61-1,1.63.16,2.3Z"/>
                  <path class="cls-14" d="M432.3,329.95l-10.81,6.31c-1.05.61-1,1.63.14,2.29l9.85,5.68c1.13.65,2.9.68,3.95.07l10.83-6.3c1.05-.61,1-1.63-.14-2.29l-9.85-5.68c-1.13-.65-2.92-.7-3.97-.09Z"/>
                  <path class="cls-14" d="M452.43,354.12l14.74-8.57c1.05-.61.97-1.65-.16-2.3l-9.85-5.68c-1.13-.65-2.9-.68-3.95-.07l-14.74,8.57c-1.05.61-1,1.63.14,2.29l9.85,5.68c1.13.65,2.92.7,3.98.09Z"/>
                  <path class="cls-14" d="M461.44,355.78l8.79,5.07c1.43.82,3.61.87,4.91.11l40.35-23.45c1.3-.75,1.24-2.03-.19-2.86l-9.6-5.54c-.94-.54-2.41-.57-3.31-.07l-41.15,23.89c-1.3.75-1.22,2.02.21,2.84Z"/>
                  <path class="cls-14" d="M532.82,345.24l-9.85-5.68c-1.13-.65-2.9-.68-3.95-.07l-10.83,6.29c-1.05.61-1,1.63.14,2.29l9.85,5.68c1.13.65,2.92.7,3.97.09l10.83-6.29c1.05-.61.97-1.65-.16-2.3Z"/>
                  <path class="cls-14" d="M501.52,349.66l-10.83,6.3c-1.05.61-1,1.63.16,2.3l1.65.95c1.13.65,2.92.7,3.98.09l10.83-6.3c1.08-.63.97-1.65-.16-2.3l-1.65-.95c-1.16-.67-2.9-.71-3.97-.09Z"/>
                  <path class="cls-14" d="M515.32,355.41l-1.67-.97c-1.13-.65-2.87-.7-3.95-.07l-10.83,6.29c-1.05.61-1,1.63.14,2.29l1.67.97c1.13.65,2.92.7,3.98.09l10.83-6.3c1.08-.63.97-1.65-.16-2.3Z"/>
                  <path class="cls-14" d="M497.83,365.57l-9.82-5.67c-1.16-.67-2.92-.7-3.97-.09l-10.83,6.3c-1.05.61-1,1.63.16,2.3l9.82,5.67c1.13.65,2.92.7,3.98.09l10.83-6.3c1.05-.61.97-1.65-.16-2.3Z"/>
                  <path class="cls-14" d="M381.31,341.93l9.82,5.67c1.13.65,2.92.7,3.98.09l16.48-9.58c1.05-.61.97-1.65-.16-2.3l-9.82-5.67c-1.16-.67-2.92-.7-3.98-.09l-16.48,9.58c-1.05.61-1,1.63.16,2.3Z"/>
                  <path class="cls-14" d="M415.21,339.91l-10.83,6.3c-1.05.61-.97,1.65.16,2.3l9.82,5.67c1.13.65,2.92.7,3.97.09l10.83-6.3c1.05-.61.97-1.65-.16-2.3l-9.82-5.67c-1.13-.65-2.92-.7-3.98-.09Z"/>
                  <path class="cls-14" d="M363.83,352.09l9.82,5.67c1.13.65,2.92.7,3.97.09l10.83-6.29c1.05-.61.97-1.65-.16-2.3l-9.82-5.67c-1.16-.67-2.92-.7-3.97-.09l-10.83,6.3c-1.05.61-1,1.63.16,2.3Z"/>
                  <path class="cls-14" d="M397.7,350.09l-10.83,6.29c-1.05.61-.97,1.65.16,2.3l9.82,5.67c1.13.65,2.92.7,3.98.09l10.83-6.3c1.05-.61.97-1.65-.16-2.3l-9.82-5.67c-1.13-.65-2.92-.7-3.98-.09Z"/>
                  <path class="cls-14" d="M429.42,367.49l16.48-9.58c1.05-.61.97-1.65-.16-2.3l-9.85-5.68c-1.13-.65-2.9-.68-3.95-.07l-16.48,9.58c-1.05.61-1,1.63.14,2.29l9.85,5.68c1.13.65,2.92.7,3.97.09Z"/>
                  <path class="cls-14" d="M452.64,374.07l16.04-9.32c1.05-.61.97-1.65-.16-2.3l-9.82-5.67c-1.16-.67-2.92-.7-3.97-.09l-16.04,9.32c-1.05.61-1,1.63.16,2.3l9.82,5.67c1.13.65,2.92.7,3.97.09Z"/>
                  <path class="cls-14" d="M346.32,362.26l9.82,5.67c1.13.65,2.92.7,3.98.09l10.86-6.31c1.05-.61.95-1.63-.18-2.29l-9.82-5.67c-1.16-.67-2.9-.71-3.95-.1l-10.86,6.31c-1.05.61-1,1.63.16,2.3Z"/>
                  <path class="cls-14" d="M380.22,360.25l-10.83,6.3c-1.05.61-.97,1.65.16,2.3l9.82,5.67c1.13.65,2.92.7,3.98.09l10.83-6.29c1.05-.61.97-1.65-.16-2.3l-9.82-5.67c-1.13-.65-2.92-.7-3.98-.09Z"/>
                  <path class="cls-14" d="M411.94,377.65l10.83-6.3c1.05-.61.97-1.65-.16-2.3l-9.85-5.68c-1.13-.65-2.9-.68-3.95-.07l-10.83,6.29c-1.05.61-1,1.63.14,2.29l9.85,5.68c1.13.65,2.92.7,3.98.09Z"/>
                  <path class="cls-14" d="M435.13,384.25l10.83-6.3c1.05-.61.97-1.65-.16-2.3l-9.82-5.67c-1.16-.67-2.92-.7-3.98-.09l-10.83,6.3c-1.05.61-1,1.63.16,2.3l9.82,5.67c1.13.65,2.92.7,3.97.09Z"/>
                  <path class="cls-14" d="M328.84,372.43l9.82,5.67c1.13.65,2.92.7,3.97.09l10.83-6.29c1.05-.61.97-1.65-.16-2.3l-9.82-5.67c-1.16-.67-2.92-.7-3.97-.09l-10.83,6.3c-1.05.61-1,1.63.16,2.3Z"/>
                  <path class="cls-14" d="M362.71,370.42l-10.83,6.3c-1.05.61-.97,1.65.16,2.3l9.82,5.67c1.13.65,2.92.7,3.97.08l10.83-6.29c1.05-.61.97-1.65-.16-2.3l-9.82-5.67c-1.13-.65-2.92-.7-3.98-.09Z"/>
                  <path class="cls-14" d="M394.43,387.83l10.86-6.31c1.05-.61.95-1.63-.18-2.29l-9.85-5.68c-1.13-.65-2.87-.7-3.93-.09l-10.86,6.31c-1.05.61-1,1.63.14,2.29l9.85,5.68c1.13.65,2.92.7,3.97.09Z"/>
                  <path class="cls-14" d="M417.65,394.41l10.83-6.29c1.05-.61.97-1.65-.16-2.3l-9.82-5.67c-1.16-.67-2.92-.7-3.98-.09l-10.83,6.29c-1.05.61-1,1.63.16,2.3l9.82,5.67c1.13.65,2.92.7,3.98.09Z"/>
                  <path class="cls-14" d="M311.33,382.6l9.82,5.67c1.13.65,2.92.7,3.98.09l10.86-6.31c1.05-.61.97-1.65-.16-2.3l-9.82-5.67c-1.16-.67-2.92-.7-3.98-.09l-10.86,6.31c-1.05.61-1,1.63.16,2.3Z"/>
                  <path class="cls-14" d="M345.22,380.58l-10.83,6.29c-1.05.61-.97,1.65.16,2.3l9.82,5.67c1.13.65,2.92.7,3.97.09l10.83-6.29c1.05-.61.97-1.65-.16-2.3l-9.82-5.67c-1.13-.65-2.92-.7-3.97-.09Z"/>
                  <path class="cls-14" d="M376.94,397.99l10.83-6.29c1.05-.61.97-1.65-.16-2.3l-9.85-5.68c-1.13-.65-2.9-.68-3.95-.07l-10.83,6.3c-1.05.61-1,1.63.14,2.29l9.85,5.68c1.13.65,2.92.7,3.97.09Z"/>
                  <path class="cls-14" d="M400.14,404.58l10.83-6.3c1.05-.61.97-1.65-.16-2.3l-9.82-5.67c-1.16-.67-2.92-.7-3.97-.09l-10.83,6.29c-1.05.61-1,1.63.16,2.3l9.82,5.67c1.13.65,2.92.7,3.98.09Z"/>
                  <path class="cls-14" d="M293.85,392.76l9.82,5.67c1.13.65,2.92.7,3.97.09l10.83-6.29c1.05-.61.97-1.65-.16-2.3l-9.82-5.67c-1.16-.67-2.92-.7-3.97-.09l-10.83,6.3c-1.05.61-1,1.63.16,2.3Z"/>
                  <path class="cls-14" d="M327.71,390.76l-10.83,6.29c-1.05.61-.97,1.65.16,2.3l9.82,5.67c1.13.65,2.92.7,3.98.09l10.83-6.3c1.05-.61.97-1.65-.16-2.3l-9.82-5.67c-1.13-.65-2.92-.7-3.98-.09Z"/>
                  <path class="cls-14" d="M359.44,408.16l10.86-6.31c1.05-.61.97-1.65-.16-2.3l-9.85-5.68c-1.13-.65-2.9-.68-3.95-.07l-10.86,6.31c-1.05.61-1,1.63.14,2.29l9.85,5.68c1.13.65,2.92.7,3.97.09Z"/>
                  <path class="cls-14" d="M382.66,414.74l10.83-6.3c1.05-.61.97-1.65-.16-2.3l-9.82-5.67c-1.16-.67-2.92-.7-3.98-.09l-10.83,6.29c-1.05.61-1,1.63.16,2.3l9.82,5.67c1.13.65,2.92.7,3.98.09Z"/>
                  <path class="cls-14" d="M276.34,402.94l9.82,5.67c1.13.65,2.92.7,3.97.09l10.86-6.31c1.05-.61.97-1.65-.16-2.3l-9.82-5.67c-1.16-.67-2.92-.7-3.97-.09l-10.86,6.31c-1.05.61-1,1.63.16,2.3Z"/>
                  <path class="cls-14" d="M310.23,400.92l-10.83,6.29c-1.05.61-.97,1.65.16,2.3l9.82,5.67c1.13.65,2.92.7,3.98.09l10.83-6.3c1.05-.61.97-1.65-.16-2.3l-9.82-5.67c-1.13-.65-2.92-.7-3.98-.09Z"/>
                  <path class="cls-14" d="M341.95,418.33l10.83-6.3c1.05-.61.97-1.65-.16-2.3l-9.85-5.68c-1.13-.65-2.9-.68-3.95-.07l-10.83,6.29c-1.05.61-1,1.63.14,2.29l9.85,5.68c1.13.65,2.92.7,3.98.09Z"/>
                  <path class="cls-14" d="M365.15,424.92l10.83-6.3c1.05-.61.97-1.65-.16-2.3l-9.82-5.67c-1.16-.67-2.92-.7-3.98-.09l-10.83,6.3c-1.05.61-1,1.63.16,2.3l9.82,5.67c1.13.65,2.92.7,3.98.09Z"/>
                  <path class="cls-14" d="M479.88,375.44l-9.85-5.68c-1.13-.65-2.9-.68-3.95-.07l-16.48,9.58c-1.05.61-1,1.63.14,2.29l9.85,5.68c1.13.65,2.92.7,3.97.09l16.48-9.58c1.05-.61.97-1.65-.16-2.3Z"/>
                  <path class="cls-14" d="M457.14,388.85l-9.85-5.68c-1.13-.65-2.9-.68-3.95-.07l-81.01,47.08c-1.05.61-1,1.63.14,2.29l9.85,5.68c1.13.65,2.92.7,3.98.09l80.99-47.09c1.05-.61,1-1.63-.14-2.29Z"/>
                  <path class="cls-14" d="M258.85,413.1l9.82,5.67c1.13.65,2.92.7,3.97.09l10.83-6.3c1.05-.61.97-1.65-.16-2.3l-9.82-5.67c-1.16-.67-2.92-.7-3.98-.09l-10.83,6.29c-1.05.61-1,1.63.16,2.3Z"/>
                  <path class="cls-14" d="M292.72,411.09l-10.83,6.3c-1.05.61-.97,1.65.16,2.3l9.82,5.67c1.13.65,2.92.7,3.98.09l10.83-6.3c1.05-.61.97-1.65-.16-2.3l-9.82-5.67c-1.13-.65-2.92-.7-3.98-.09Z"/>
                  <path class="cls-14" d="M324.44,428.5l10.86-6.31c1.05-.61.97-1.65-.16-2.3l-9.85-5.68c-1.13-.65-2.9-.68-3.95-.07l-10.86,6.31c-1.05.61-1,1.63.14,2.29l9.85,5.68c1.13.65,2.92.7,3.98.09Z"/>
                  <path class="cls-14" d="M347.66,435.08l10.83-6.3c1.05-.61.97-1.65-.16-2.3l-9.82-5.67c-1.16-.67-2.92-.7-3.98-.09l-10.83,6.3c-1.05.61-1,1.63.16,2.3l9.82,5.67c1.13.65,2.92.7,3.98.09Z"/>
                  <path class="cls-14" d="M241.37,423.26l9.82,5.67c1.13.65,2.9.71,3.95.1l10.86-6.31c1.05-.61.97-1.65-.16-2.3l-9.82-5.67c-1.16-.67-2.92-.7-3.98-.09l-10.86,6.31c-1.05.61-.97,1.62.18,2.29Z"/>
                  <path class="cls-14" d="M275.24,421.25l-10.83,6.29c-1.05.61-.97,1.65.16,2.3l9.82,5.67c1.13.65,2.92.7,3.98.09l10.83-6.3c1.05-.61.97-1.65-.16-2.3l-9.82-5.67c-1.13-.65-2.92-.7-3.98-.09Z"/>
                  <path class="cls-14" d="M307.79,424.38c-1.13-.65-2.9-.68-3.95-.07l-10.83,6.29c-1.05.61-1,1.63.14,2.29l9.85,5.68c1.13.65,2.92.7,3.98.09l10.83-6.3c1.05-.61.97-1.65-.16-2.3l-9.85-5.68Z"/>
                  <path class="cls-14" d="M330.16,445.25l10.83-6.29c1.05-.61.97-1.65-.16-2.3l-9.82-5.67c-1.16-.67-2.92-.7-3.98-.09l-10.83,6.3c-1.05.61-1,1.63.16,2.3l9.82,5.67c1.13.65,2.92.7,3.98.09Z"/>
                  <path class="cls-14" d="M369.38,439.65l-9.82-5.67c-1.16-.67-2.92-.7-3.98-.09l-10.86,6.31c-1.05.61-1,1.63.16,2.3l9.82,5.67c1.13.65,2.92.7,3.97.09l10.86-6.31c1.05-.61.97-1.65-.16-2.3Z"/>
                  <path class="cls-14" d="M248.33,430.59l-9.82-5.67c-1.16-.67-2.92-.7-3.98-.09l-10.83,6.29c-1.05.61-1,1.63.16,2.3l9.82,5.67c1.13.65,2.92.7,3.98.09l10.83-6.3c1.05-.61.97-1.65-.16-2.3Z"/>
                  <path class="cls-14" d="M271.52,437.18l-9.82-5.67c-1.13-.65-2.92-.7-3.98-.09l-16.46,9.56c-1.05.61-.97,1.65.16,2.3l9.82,5.67c1.13.65,2.92.7,3.98.09l16.46-9.56c1.05-.61.97-1.65-.16-2.3Z"/>
                  <path class="cls-14" d="M275.68,443.07l9.8,5.68c1.13.65,2.92.7,3.97.09l10.86-6.31c1.05-.61.97-1.65-.16-2.3l-9.85-5.68c-1.13-.65-2.9-.68-3.95-.07l-10.86,6.31c-1.05.61-.97,1.62.18,2.29Z"/>
                  <path class="cls-14" d="M298.88,449.66l9.82,5.67c1.13.65,2.92.7,3.98.09l10.83-6.3c1.05-.61.97-1.65-.16-2.3l-9.82-5.67c-1.16-.67-2.92-.7-3.98-.09l-10.83,6.3c-1.05.61-1,1.63.16,2.3Z"/>
                  <path class="cls-14" d="M351.87,449.83l-9.82-5.67c-1.16-.67-2.92-.7-3.98-.09l-10.83,6.29c-1.05.61-1,1.63.16,2.3l9.82,5.67c1.13.65,2.92.7,3.98.09l10.83-6.3c1.05-.61.97-1.65-.16-2.3Z"/>
                  <path class="cls-14" d="M282.64,450.4l-9.82-5.67c-1.16-.67-2.92-.7-3.98-.09l-10.83,6.3c-1.05.61-1,1.63.16,2.3l9.82,5.67c1.13.65,2.92.7,3.98.09l10.83-6.3c1.05-.61.97-1.65-.16-2.3Z"/>
                  <path class="cls-14" d="M305.84,456.99l-9.82-5.67c-1.16-.67-2.92-.7-3.98-.09l-16.46,9.56c-1.05.61-1,1.63.16,2.3l9.82,5.67c1.13.65,2.92.7,3.98.09l16.46-9.56c1.05-.61.97-1.65-.16-2.3Z"/>
                  <path class="cls-14" d="M334.38,459.99l-9.82-5.67c-1.16-.67-2.92-.7-3.98-.09l-10.86,6.31c-1.05.61-1,1.63.16,2.3l9.82,5.67c1.13.65,2.92.7,3.98.09l10.86-6.31c1.05-.61.97-1.65-.16-2.3Z"/>
                  <path class="cls-14" d="M316.88,470.16l-9.82-5.67c-1.16-.67-2.92-.7-3.98-.09l-10.83,6.29c-1.05.61-1,1.63.16,2.3l9.82,5.67c1.13.65,2.92.7,3.98.09l10.83-6.29c1.05-.61.97-1.65-.16-2.3Z"/>
                </g>
              </g>
              <path class="cls-12" d="M552.98,426.98l-102.37,59.1c-1.79,1.03-4.7,1.03-6.49,0l-65.66-37.91c-1.79-1.03-1.79-2.71,0-3.75l102.37-59.1c1.79-1.03,4.7-1.03,6.49,0l65.66,37.91c1.79,1.03,1.79,2.71,0,3.75Z"/>
              <path class="cls-17" d="M378.46,444.88l102.37-59.1c1.79-1.03,4.7-1.03,6.49,0l65.66,37.91c.79.46,1.18,1.05,1.27,1.65.11-.75-.27-1.52-1.27-2.1l-65.66-37.91c-1.79-1.03-4.7-1.03-6.49,0l-102.37,59.1c-1,.58-1.38,1.35-1.27,2.1.09-.6.47-1.19,1.27-1.65Z"/>
              <g>
                <path class="cls-20" d="M211.04,463.71l-10.67-6.16c-.31-.18-.56-.57-.56-.88v-2.51c0-.31.25-.41.56-.24l10.67,6.16c.31.18.56.57.56.88v2.51c0,.31-.25.41-.56.24Z"/>
                <path class="cls-20" d="M329.52,532.11l-10.67-6.16c-.31-.18-.56-.57-.56-.88v-2.51c0-.31.25-.41.56-.24l10.67,6.16c.31.18.56.57.56.88v2.51c0,.31-.25.41-.56.24Z"/>
                <path class="cls-20" d="M195.77,454.89l-10.67-6.16c-.31-.18-.56-.57-.56-.88v-2.51c0-.31.25-.41.56-.24l10.67,6.16c.31.18.56.57.56.88v2.51c0,.31-.25.41-.56.24Z"/>
              </g>
            </g>
            <polygon class="cls-5" points="309.78 126.86 195.09 193.07 195.09 436.9 309.78 370.69 309.78 126.86"/>
            <polygon class="cls-4" points="309.78 126.86 309.78 370.69 486.69 268.55 486.69 24.72 309.78 126.86"/>
            <polygon class="cls-16" points="487 40.15 195 208.51 195 180.03 487 11.68 487 40.15"/>
          </g>
          <path class="cls-8" d="M444.82,164.58l16.47-9.51v-2.15l-16.47,9.51v2.15ZM430.86,172.63l10.63-6.14v-2.15l-10.63,6.14v2.15ZM417.13,178.41v2.15l10.4-6.01v-2.15l-10.4,6.01ZM406.42,186.74l7.39-4.27v-2.15l-7.39,4.27v2.15ZM398.92,191.07l4.17-2.41v-2.15l-4.17,2.41v2.15ZM451.92,166.31l9.14-5.28v-2.15l-9.14,5.28v2.15ZM438.43,174.1l10.16-5.87v-2.15l-10.16,5.87v2.15ZM426.09,179.07v2.15l9.02-5.21v-2.15l-9.02,5.21ZM411.78,189.49l10.99-6.35v-2.15l-10.99,6.35v2.15ZM398.92,196.91l9.53-5.5v-2.15l-9.53,5.5v2.15ZM458.77,168.2l2.52-1.45v-2.15l-2.52,1.45v2.15ZM430.86,184.31l24.59-14.19v-2.15l-24.59,14.19v2.15ZM417.13,190.09v2.15l10.4-6.01v-2.15l-10.4,6.01ZM406.42,198.42l7.39-4.27v-2.15l-7.39,4.27v2.15ZM398.92,202.75l4.17-2.41v-2.15l-4.17,2.41v2.15ZM451.92,177.99l9.14-5.28v-2.15l-9.14,5.28v2.15ZM438.43,185.78l10.16-5.87v-2.15l-10.16,5.87v2.15ZM426.09,190.75v2.15l9.02-5.21v-2.15l-9.02,5.21ZM411.78,201.17l10.99-6.35v-2.15l-10.99,6.35v2.15ZM398.92,208.59l9.53-5.5v-2.15l-9.53,5.5v2.15ZM443.52,188.68l17.77-10.26v-2.15l-17.77,10.26v2.15ZM430.86,195.99l9.33-5.39v-2.15l-9.33,5.39v2.15ZM417.13,201.76v2.15l10.4-6.01v-2.15l-10.4,6.01ZM456.49,187.03l4.57-2.64v-2.15l-4.57,2.64v2.15ZM438.43,197.46l14.73-8.51v-2.15l-14.73,8.51v2.15ZM426.09,202.43v2.15l9.02-5.21v-2.15l-9.02,5.21ZM444.82,210.48l16.47-9.51v-2.15l-16.47,9.51v2.15ZM430.86,218.53l10.63-6.14v-2.15l-10.63,6.14v2.15ZM417.13,224.31v2.15l10.4-6.01v-2.15l-10.4,6.01ZM406.42,232.65l7.39-4.27v-2.15l-7.39,4.27v2.15ZM398.92,236.98l4.17-2.41v-2.15l-4.17,2.41v2.15ZM451.92,212.22l9.14-5.28v-2.15l-9.14,5.28v2.15ZM438.43,220l10.16-5.87v-2.15l-10.16,5.87v2.15ZM426.09,224.98v2.15l9.02-5.21v-2.15l-9.02,5.21ZM444.82,233.42l16.47-9.51v-2.15l-16.47,9.51v2.15ZM430.86,241.47l10.63-6.14v-2.15l-10.63,6.14v2.15ZM417.13,247.25v2.15l10.4-6.01v-2.15l-10.4,6.01ZM406.42,255.58l7.39-4.27v-2.15l-7.39,4.27v2.15ZM398.92,259.92l4.17-2.41v-2.15l-4.17,2.41v2.15ZM451.92,235.15l9.14-5.28v-2.15l-9.14,5.28v2.15ZM438.43,242.94l10.16-5.87v-2.15l-10.16,5.87v2.15ZM426.09,247.92v2.15l9.02-5.21v-2.15l-9.02,5.21ZM411.78,258.33l10.99-6.35v-2.15l-10.99,6.35v2.15ZM398.92,265.75l9.53-5.5v-2.15l-9.53,5.5v2.15ZM458.77,237.04l2.52-1.45v-2.15l-2.52,1.45v2.15ZM430.86,253.15l24.59-14.19v-2.15l-24.59,14.19v2.15ZM444.82,134.2l16.47-9.51v-2.15l-16.47,9.51v2.15ZM430.86,142.26l10.63-6.14v-2.15l-10.63,6.14v2.15ZM417.13,148.03v2.15l10.4-6.01v-2.15l-10.4,6.01ZM406.42,156.37l7.39-4.27v-2.15l-7.39,4.27v2.15ZM398.92,160.7l4.17-2.41v-2.15l-4.17,2.41v2.15ZM451.92,135.94l9.14-5.28v-2.15l-9.14,5.28v2.15ZM438.43,143.72l10.16-5.87v-2.15l-10.16,5.87v2.15ZM426.09,148.7v2.15l9.02-5.21v-2.15l-9.02,5.21ZM411.78,159.11l10.99-6.35v-2.15l-10.99,6.35v2.15ZM398.92,166.54l9.53-5.5v-2.15l-9.53,5.5v2.15ZM458.77,137.82l2.52-1.45v-2.15l-2.52,1.45v2.15ZM430.86,153.94l24.59-14.19v-2.15l-24.59,14.19v2.15ZM417.13,258.93v2.15l10.4-6.01v-2.15l-10.4,6.01ZM406.42,267.26l7.39-4.27v-2.15l-7.39,4.27v2.15ZM398.92,271.59l4.17-2.41v-2.15l-4.17,2.41v2.15ZM451.92,246.83l9.14-5.28v-2.15l-9.14,5.28v2.15ZM438.43,254.62l10.16-5.87v-2.15l-10.16,5.87v2.15ZM426.09,259.59v2.15l9.02-5.21v-2.15l-9.02,5.21ZM411.78,270.01l10.99-6.35v-2.15l-10.99,6.35v2.15ZM398.92,277.43l9.53-5.5v-2.15l-9.53,5.5v2.15ZM443.52,257.53l17.77-10.26v-2.15l-17.77,10.26v2.15ZM430.86,264.83l9.33-5.39v-2.15l-9.33,5.39v2.15ZM417.13,270.61v2.15l10.4-6.01v-2.15l-10.4,6.01ZM456.49,255.87l4.57-2.64v-2.15l-4.57,2.64v2.15ZM438.43,266.3l14.73-8.51v-2.15l-14.73,8.51v2.15ZM426.09,271.27v2.15l9.02-5.21v-2.15l-9.02,5.21Z"/>
          <path class="cls-9" d="M225.19,344.1l-16.47,9.51v2.15l16.47-9.51v-2.15ZM239.15,336.04l-10.63,6.14v2.15l10.63-6.14v-2.15ZM242.47,334.12v2.15l10.4-6.01v-2.15l-10.4,6.01ZM263.59,321.93l-7.39,4.27v2.15l7.39-4.27v-2.15ZM271.09,317.6l-4.18,2.41v2.15l4.18-2.41v-2.15ZM218.09,354.04l-9.14,5.28v2.15l9.14-5.28v-2.15ZM231.57,346.25l-10.16,5.87v2.15l10.16-5.87v-2.15ZM234.9,344.33v2.15l9.02-5.21v-2.15l-9.02,5.21ZM258.23,330.86l-10.99,6.35v2.15l10.99-6.35v-2.15ZM271.09,323.44l-9.53,5.5v2.15l9.53-5.5v-2.15ZM211.24,363.84l-2.52,1.45v2.15l2.52-1.45v-2.15ZM239.15,347.72l-24.59,14.19v2.15l24.59-14.19v-2.15ZM242.47,345.8v2.15l10.4-6.01v-2.15l-10.4,6.01ZM263.59,333.61l-7.39,4.27v2.15l7.39-4.27v-2.15ZM271.09,329.28l-4.18,2.41v2.15l4.18-2.41v-2.15ZM218.09,365.72l-9.14,5.28v2.15l9.14-5.28v-2.15ZM231.57,357.93l-10.16,5.87v2.15l10.16-5.87v-2.15ZM234.9,356.01v2.15l9.02-5.21v-2.15l-9.02,5.21ZM258.23,342.54l-10.99,6.35v2.15l10.99-6.35v-2.15ZM271.09,335.12l-9.53,5.5v2.15l9.53-5.5v-2.15ZM226.49,366.71l-17.77,10.26v2.15l17.77-10.26v-2.15ZM239.15,359.4l-9.33,5.39v2.15l9.33-5.39v-2.15ZM242.47,357.48v2.15l10.4-6.01v-2.15l-10.4,6.01ZM213.52,380.04l-4.57,2.64v2.15l4.57-2.64v-2.15ZM231.57,369.61l-14.73,8.51v2.15l14.73-8.51v-2.15ZM234.9,367.69v2.15l9.02-5.21v-2.15l-9.02,5.21ZM225.19,390l-16.47,9.51v2.15l16.47-9.51v-2.15ZM239.15,381.95l-10.63,6.14v2.15l10.63-6.14v-2.15ZM242.47,380.03v2.15l10.4-6.01v-2.15l-10.4,6.01ZM263.59,367.83l-7.39,4.27v2.15l7.39-4.27v-2.15ZM271.09,363.5l-4.18,2.41v2.15l4.18-2.41v-2.15ZM218.09,399.94l-9.14,5.28v2.15l9.14-5.28v-2.15ZM231.57,392.16l-10.16,5.87v2.15l10.16-5.87v-2.15ZM234.9,390.24v2.15l9.02-5.21v-2.15l-9.02,5.21ZM225.19,313.72l-16.47,9.51v2.15l16.47-9.51v-2.15ZM239.15,305.67l-10.63,6.14v2.15l10.63-6.14v-2.15ZM242.47,303.75v2.15l10.4-6.01v-2.15l-10.4,6.01ZM263.59,291.56l-7.39,4.27v2.15l7.39-4.27v-2.15ZM271.09,287.23l-4.18,2.41v2.15l4.18-2.41v-2.15ZM218.09,323.67l-9.14,5.28v2.15l9.14-5.28v-2.15ZM231.57,315.88l-10.16,5.87v2.15l10.16-5.87v-2.15ZM234.9,313.96v2.15l9.02-5.21v-2.15l-9.02,5.21ZM258.23,300.49l-10.99,6.35v2.15l10.99-6.35v-2.15ZM271.09,293.07l-9.53,5.5v2.15l9.53-5.5v-2.15ZM211.24,333.46l-2.52,1.45v2.15l2.52-1.45v-2.15ZM239.15,317.35l-24.59,14.19v2.15l24.59-14.19v-2.15Z"/>
          <path class="cls-6" d="M380.61,149c0,3.06-2.14,6.79-4.81,8.33l-36.92,21.32c-2.67,1.54-4.84.31-4.85-2.75l-.05-25.24c0-3.06,2.14-6.8,4.82-8.34l36.92-21.32c2.66-1.54,4.83-.3,4.84,2.77l.05,25.24ZM380.56,198.95c0-3.06-2.17-4.3-4.84-2.77l-36.92,21.32c-2.67,1.54-4.82,5.28-4.82,8.34l.05,25.24c0,3.06,2.17,4.3,4.85,2.75l36.92-21.32c2.66-1.54,4.82-5.27,4.81-8.33l-.05-25.24ZM380.56,274.14c0-3.06-2.17-4.3-4.84-2.77l-36.92,21.32c-2.67,1.54-4.82,5.28-4.82,8.34l.05,25.24c0,3.06,2.17,4.3,4.85,2.75l36.92-21.32c2.66-1.54,4.82-5.27,4.81-8.33l-.05-25.24Z"/>
          <path class="cls-16" d="M395.7,132.5c0-3.06-2.17-4.31-4.84-2.77l-36.92,21.32c-2.67,1.54-4.82,5.28-4.81,8.34l.05,25.24c0,3.06,2.17,4.3,4.85,2.75l36.92-21.32c2.66-1.54,4.82-5.27,4.81-8.33l-.05-25.24Z"/>
          <path class="cls-16" d="M395.7,207.69c0-3.06-2.17-4.3-4.84-2.77l-36.92,21.32c-2.67,1.54-4.82,5.28-4.81,8.34l.05,25.24c0,3.06,2.17,4.3,4.85,2.75l36.92-21.32c2.66-1.54,4.82-5.27,4.81-8.33l-.05-25.24Z"/>
          <path class="cls-16" d="M395.7,282.88c0-3.06-2.17-4.3-4.84-2.77l-36.92,21.32c-2.67,1.54-4.82,5.28-4.81,8.34l.05,25.24c0,3.06,2.17,4.3,4.85,2.75l36.92-21.32c2.66-1.54,4.82-5.27,4.81-8.33l-.05-25.24Z"/>
          <g>
            <path class="cls-6" d="M463.23,101.3c0,3.06-2.14,6.79-4.81,8.33l-44.61,25.75c-2.67,1.54-4.84.31-4.85-2.75l-.05-25.24c0-3.06,2.14-6.8,4.82-8.34l44.61-25.75c2.66-1.54,4.83-.3,4.84,2.77l.05,25.24Z"/>
            <path class="cls-2" d="M478.32,84.8c0-3.06-2.17-4.3-4.84-2.77l-44.61,25.75c-2.67,1.54-4.82,5.28-4.82,8.34l.05,25.24c0,3.06,2.17,4.3,4.85,2.75l44.61-25.75c2.66-1.54,4.82-5.27,4.81-8.33l-.05-25.24Z"/>
            <g>
              <path class="cls-10" d="M432.06,130.57v-13.05c0-.3.15-.54.46-.72l5.21-3.01c1.14-.66,2.03-.87,2.65-.62.62.25.93.94.93,2.07v.89c0,1.23-.57,2.36-1.71,3.38.58-.25,1.04-.28,1.39-.1.35.18.52.63.52,1.34v1.3c0,1.13-.31,2.18-.93,3.15-.62.97-1.5,1.78-2.63,2.43l-5.43,3.13c-.3.18-.46.11-.46-.19ZM435.06,121l2.22-1.28c.46-.27.8-.56,1.02-.88.22-.32.33-.71.33-1.15v-.85c0-.45-.11-.71-.31-.79-.21-.07-.55.02-1.01.29l-2.24,1.29c-.16.09-.24.22-.24.38v2.89c0,.16.08.19.24.1ZM435.06,126.99l2.43-1.41c.48-.28.82-.57,1.03-.89.21-.32.32-.7.32-1.15v-1.26c0-.45-.11-.7-.33-.77-.22-.06-.57.05-1.06.33l-2.39,1.38c-.16.09-.24.22-.24.38v3.28c0,.16.08.19.24.1Z"/>
              <path class="cls-10" d="M451.26,105.98l1.83-1.05c.32-.18.48-.13.48.16v9.99c0,1.13-.31,2.18-.95,3.16-.63.98-1.51,1.79-2.64,2.45l-2.39,1.38c-1.14.66-2.03.87-2.65.62-.62-.25-.93-.94-.93-2.09v-9.97c0-.3.15-.54.46-.72l1.85-1.07c.3-.18.46-.11.46.19v9.84c0,.46.1.74.29.82.19.08.52,0,.97-.26l1.5-.86c.46-.27.79-.56.99-.86.19-.31.29-.69.29-1.16v-9.84c0-.3.15-.54.46-.72Z"/>
              <path class="cls-10" d="M461.41,114.09l-1.85,1.07c-.3.18-.46.11-.46-.19v-4.65l-3.98-6.09c-.06-.1-.05-.21.01-.34.06-.13.16-.23.29-.31l2.3-1.33c.23-.13.4-.08.52.16l2.17,4.02c.15-.09,2.28-6.59,2.28-6.59.1-.36.27-.61.52-.76l2.3-1.33c.14-.08.25-.1.32-.05.06.05.06.17-.01.35l-3.97,10.68v4.65c0,.3-.15.54-.46.72Z"/>
              <path class="cls-10" d="M467.18,100.61v-3.37c0-.3.15-.54.46-.72l2.06-1.19c.3-.18.46-.11.46.19v3.37c0,.58-.03,1.25-.1,2-.07.75-.11,1.31-.14,1.68-.03.36-.06.66-.09.9-.03.23-.04.36-.04.37-.06.34-.22.59-.5.74l-1.24.71c-.28.16-.44.1-.5-.17,0-.02-.01-.12-.04-.32-.03-.2-.06-.46-.1-.79-.04-.33-.07-.68-.1-1.07-.09-1.14-.13-1.92-.13-2.34ZM470.09,105.94v2.67c0,.3-.14.54-.43.71l-1.91,1.1c-.29.17-.44.09-.44-.23v-2.63c0-.29.15-.52.44-.69l1.91-1.1c.29-.17.43-.11.43.16Z"/>
            </g>
          </g>
          <g>
            <g>
              <path class="cls-15" d="M215.67,279.82l-2.84,1.64v-4.15s-3.93-7.13-3.93-7.13l3.1-1.79,2.24,4.63,2.23-7.21,3.1-1.79-3.91,11.66v4.15Z"/>
              <path class="cls-15" d="M219.96,270.91v-.7c0-4.69,1.67-7.62,5.21-9.66,3.56-2.06,5.23-1.05,5.23,3.64v.7c0,4.69-1.67,7.62-5.23,9.67-3.54,2.05-5.21,1.04-5.21-3.65ZM225.25,272.08c1.75-1.01,2.25-2.81,2.25-5.52v-.7c0-2.71-.49-3.94-2.24-2.93-1.91,1.1-2.42,2.91-2.42,5.62v.7c0,2.71.51,3.93,2.26,2.92l.16-.09Z"/>
              <path class="cls-15" d="M231.98,266.11v-9.26l2.84-1.64v9.18c0,1.44.46,1.91,2.07.98,1.61-.93,2.09-1.94,2.09-3.38v-9.18l2.84-1.64v9.26c0,2.95-1.21,5.22-4.93,7.36-3.72,2.15-4.91,1.27-4.91-1.68Z"/>
              <path class="cls-15" d="M246.54,262l-2.84,1.64v-13.55l4.49-2.59c2.23-1.29,4.75-2.17,4.75,1.43v.35c0,2.19-.93,3.8-2.16,5.02l2.16,4.02-3.07,1.77-1.88-3.78-1.46.84v4.87ZM248.31,253.67c.77-.45,1.75-1.31,1.75-2.84,0-1.7-.98-1.43-1.75-.99l-1.77,1.02v3.82l1.77-1.02Z"/>
              <path class="cls-15" d="M257.85,249.04v-.7c0-4.69,1.67-7.62,5.21-9.66,3.56-2.06,5.23-1.05,5.23,3.64v.7c0,4.69-1.67,7.62-5.23,9.67-3.54,2.05-5.21,1.04-5.21-3.65ZM263.14,250.2c1.75-1.01,2.24-2.81,2.24-5.52v-.7c0-2.71-.49-3.94-2.24-2.93-1.91,1.1-2.42,2.91-2.42,5.62v.7c0,2.71.51,3.93,2.26,2.92l.16-.09Z"/>
              <path class="cls-15" d="M276.97,234.09l-1.98,11.52-3.63,2.1-2.26-12.28,2.96-1.71,1.32,8.99,1.84-10.81,3.52-2.04,1.84,8.69,1.32-10.51,2.96-1.71-2.26,14.9-3.65,2.11-1.98-9.23Z"/>
              <path class="cls-15" d="M296.2,233.32l-3,1.73-4.42-5.86.09,2.68v5.68l-2.68,1.55v-13.55s3-1.73,3-1.73l4.4,5.87-.09-2.68v-5.68l2.7-1.56v13.55Z"/>
              <path class="cls-15" d="M215.81,286.37c3.4-1.96,7-3.13,7,1.93v.55c0,1.96-.86,3.68-2.12,5.12,1.56-.16,2.68.53,2.68,2.85v.55c0,5.25-3.82,8.4-7.34,10.43l-7.36,4.25v-21.56l7.14-4.12ZM213.19,291.76v4.73l2.59-1.5c1.17-.68,2.46-1.83,2.46-3.6v-.36c0-1.77-1.28-1.44-2.46-.77l-2.59,1.5ZM213.19,300.38v5.2l2.98-1.72c1.26-.73,2.62-2.04,2.62-4,0-2.21-1.37-1.92-2.62-1.19l-2.99,1.72Z"/>
              <path class="cls-15" d="M230.8,299.28l-4.52,2.61v-21.56l7.14-4.12c3.54-2.05,7.56-3.45,7.56,2.27v.55c0,3.48-1.48,6.05-3.43,7.98l3.43,6.39-4.88,2.82-2.98-6.02-2.32,1.34v7.74ZM233.62,286.04c1.23-.71,2.79-2.08,2.79-4.51v-.28c0-2.43-1.56-2-2.79-1.29l-2.82,1.63v6.08l2.82-1.63Z"/>
              <path class="cls-15" d="M253.89,264.34l5.44,18.47-4.83,2.79-1.06-4.03-5.33,3.08-1.03,5.24-4.85,2.8,5.44-24.76,6.22-3.59ZM248.98,280.27l3.57-2.06-1.79-6.9-1.79,8.96Z"/>
              <path class="cls-15" d="M277.22,272.48l-4.77,2.75-7.03-9.32.14,4.26v9.04l-4.27,2.46v-21.56l4.77-2.75,7,9.34-.14-4.26v-9.04l4.3-2.48v21.56Z"/>
              <path class="cls-15" d="M287.02,266.82l-6.67,3.85v-21.56s6.67-3.85,6.67-3.85c6.47-3.74,9.18-2.54,9.18,4.93v1.11c0,7.46-2.71,11.79-9.18,15.53ZM286.77,263.09c3.77-2.17,4.83-4.83,4.83-9.14v-1.11c0-4.31-1.06-5.74-4.83-3.57l-1.9,1.1v13.82l1.9-1.1Z"/>
            </g>
            <path class="cls-13" d="M266.39,214.53c0,7.63-6.25,17.43-13.95,21.88-7.71,4.45-13.95,1.87-13.95-5.77s6.25-17.43,13.95-21.88,13.95-1.87,13.95,5.77ZM275.24,188.7c-3.85,2.22-6.98,7.12-6.98,10.94s3.12,5.11,6.98,2.88c3.85-2.22,6.98-7.12,6.98-10.94s-3.12-5.11-6.98-2.88ZM232.38,200.37c-1.93,1.11-3.49,3.56-3.49,5.47s1.56,2.55,3.49,1.44c1.93-1.11,3.49-3.56,3.49-5.47s-1.56-2.55-3.49-1.44Z"/>
          </g>
        </g>
      </g>
      <g id="Perspective_Text" data-name="Perspective Text">
        <g>
          <path d="M300.97,128.8l4.41,3.98v-6.6c0-.43.09-.8.28-1.13s.44-.58.76-.76.58-.23.77-.13.28.37.28.8v8.71c0,.97-.41,1.7-1.22,2.19-.2.12-.39.2-.55.24-.16.04-.32.04-.46,0s-.28-.11-.4-.21c-.12-.1-.25-.2-.37-.3l-4.32-3.96v6.55c0,.43-.1.81-.3,1.15s-.46.6-.78.79-.59.24-.79.14c-.2-.1-.3-.37-.3-.79v-8.66c0-.37.04-.68.13-.94.1-.29.26-.57.49-.85.23-.28.48-.49.74-.65.21-.12.39-.19.53-.21s.28,0,.39.04.23.13.34.24.24.23.36.35Z"/>
          <path d="M312.21,122.29v3.15l4.79-2.81v-3.13c0-.45.1-.84.3-1.18s.46-.6.79-.79.6-.24.8-.13.31.38.31.83v8.57c0,.45-.1.85-.31,1.19s-.47.62-.8.81-.6.24-.79.13c-.2-.11-.3-.39-.3-.83v-3.67l-4.79,2.82v3.7c0,.46-.11.86-.32,1.21s-.48.62-.82.82-.61.25-.81.14c-.2-.11-.3-.39-.3-.84v-8.69c0-.45.1-.85.3-1.19s.47-.61.81-.81.61-.24.82-.14.31.38.31.83Z"/>
          <path d="M326.61,112.79l2.78-1.61c.72-.42,1.34-.71,1.85-.87s.98-.17,1.39-.04c1.08.32,1.62,1.45,1.62,3.39,0,.64-.05,1.25-.16,1.85s-.28,1.17-.5,1.72c-.23.56-.52,1.11-.87,1.65-.28.42-.58.81-.92,1.16s-.69.67-1.07.97-.81.58-1.3.87l-2.78,1.66c-.39.23-.68.35-.88.34s-.33-.09-.39-.28c-.06-.18-.09-.45-.09-.8v-7.91c0-.47.1-.87.31-1.2s.54-.63,1.01-.9ZM327.44,114.03v7.3l1.62-.96c.35-.21.63-.38.83-.52s.41-.31.62-.51.4-.42.56-.66c.71-1.03,1.06-2.29,1.06-3.79,0-1.05-.16-1.75-.47-2.1s-.69-.45-1.15-.33c-.46.12-1.01.37-1.66.75l-1.41.82Z"/>
          <path d="M342.8,105.06l-4.63,2.69v2.6l4.27-2.5c.31-.18.54-.25.7-.19s.23.2.23.44-.08.48-.23.72c-.15.24-.39.45-.7.64l-4.27,2.51v3.01l4.79-2.84c.32-.19.56-.25.72-.2.16.06.24.22.24.47s-.08.5-.24.75-.4.47-.72.66l-5.6,3.33c-.45.27-.78.36-.98.27s-.3-.37-.3-.83v-7.98c0-.31.04-.59.13-.83.09-.25.23-.47.42-.67.19-.2.43-.38.72-.55l5.44-3.15c.33-.19.57-.25.72-.19.16.06.24.21.24.45s-.08.49-.24.74c-.16.24-.4.46-.72.65Z"/>
          <path d="M347.02,102.18l2.25,5.67,2.24-8.33c.12-.44.2-.74.26-.92.06-.18.15-.36.29-.55s.32-.36.55-.49c.17-.1.33-.14.47-.14s.26.06.34.16c.08.1.12.23.12.38,0,.1-.01.22-.04.36-.03.13-.06.27-.1.41s-.08.28-.12.43l-2.37,8.16c-.09.31-.17.61-.26.89-.09.29-.18.55-.3.79-.11.24-.26.48-.45.7s-.41.42-.68.58-.5.24-.69.24c-.19,0-.34-.06-.45-.17s-.22-.26-.3-.44-.17-.38-.26-.59l-2.38-5.38c-.04-.1-.08-.2-.13-.29s-.08-.2-.11-.32-.04-.23-.04-.32.09-.52.28-.83.42-.54.7-.71c.35-.2.59-.23.73-.09.14.14.29.41.44.8Z"/>
          <path d="M364.58,92.51l-2.09,1.22v7.41c0,.43-.09.8-.27,1.11-.18.31-.41.55-.69.72s-.52.2-.7.1-.27-.37-.27-.79v-7.43l-2.12,1.23c-.33.19-.58.26-.74.2s-.24-.22-.24-.48.08-.53.25-.78.41-.47.73-.66l6.13-3.55c.33-.19.57-.25.74-.19s.24.22.24.48-.08.51-.24.75-.41.47-.73.66Z"/>
          <path d="M372.8,87.62l-4.22,2.46v2.48l3.89-2.28c.28-.17.5-.22.64-.16s.21.2.21.43-.07.45-.21.68c-.14.22-.35.42-.64.59l-3.89,2.29v2.87l4.37-2.59c.29-.17.51-.23.66-.17.15.06.22.21.22.46s-.07.47-.22.71-.37.44-.66.61l-5.1,3.03c-.41.25-.71.32-.89.23s-.27-.36-.27-.8v-7.61c0-.29.04-.56.12-.79.08-.23.21-.44.38-.63.17-.18.39-.35.66-.51l4.95-2.87c.3-.17.52-.23.66-.17.14.06.22.21.22.44s-.07.47-.22.7c-.14.23-.36.43-.66.6Z"/>
          <path d="M381.08,90.04l-.43-.99-3.67,2.17-.43,1.54c-.17.6-.31,1.02-.43,1.27-.12.25-.32.45-.59.61-.23.14-.44.17-.62.09s-.27-.24-.27-.48c0-.14.02-.29.06-.46s.11-.41.21-.73l2.33-7.85c.07-.22.14-.49.24-.81s.19-.59.3-.82.24-.45.41-.66c.17-.2.38-.38.63-.52s.47-.22.64-.21c.17,0,.31.07.41.17s.19.24.26.38c.07.15.16.35.27.61l2.34,5.01c.18.38.27.68.27.9s-.09.49-.26.78c-.17.29-.38.51-.62.66-.14.08-.26.13-.37.13s-.19-.02-.26-.08c-.07-.05-.14-.16-.22-.31-.08-.15-.15-.29-.2-.41ZM377.47,89.41l2.69-1.59-1.36-3.3-1.34,4.89Z"/>
          <path d="M387.31,85.97l-1.41-5.42v6.78c0,.38-.08.7-.23.98s-.35.49-.6.64-.44.17-.59.07c-.15-.09-.23-.33-.23-.71v-7.79c0-.43.1-.78.3-1.04s.47-.5.81-.7l.55-.32c.33-.19.57-.3.72-.32s.26.04.33.17.15.37.25.71l1.27,4.62,1.27-6.1c.09-.44.17-.77.24-.99s.18-.4.33-.55.39-.32.71-.51l.54-.31c.33-.19.6-.27.8-.24s.29.26.29.69v7.69c0,.37-.07.69-.22.97s-.34.48-.59.63c-.23.14-.42.16-.57.06s-.22-.33-.22-.7v-6.73l-1.39,7.03c-.09.46-.17.8-.22,1.02-.06.22-.16.46-.32.71s-.37.45-.64.62c-.21.12-.38.18-.53.16-.14-.01-.25-.08-.33-.18s-.14-.24-.19-.41-.09-.33-.14-.51Z"/>
        </g>
      </g>
    </g>
  </g>
</svg>